<?xml version="1.0" encoding="UTF-8" standalone="no"?>
<!DOCTYPE svg PUBLIC "-//W3C//DTD SVG 1.1//EN" "http://www.w3.org/Graphics/SVG/1.1/DTD/svg11.dtd">
<svg width="100%" height="100%" viewBox="0 0 3334 1667" version="1.1" xmlns="http://www.w3.org/2000/svg" xmlns:xlink="http://www.w3.org/1999/xlink" xml:space="preserve" xmlns:serif="http://www.serif.com/" style="fill-rule:evenodd;clip-rule:evenodd;stroke-linejoin:round;stroke-miterlimit:1.41421;">
    <g transform="matrix(4.16667,0,0,4.16667,0,0)">
        <rect x="0" y="0" width="800" height="400" style="fill:url(#_Linear1);fill-rule:nonzero;"/>
        <path d="M624.591,204.601L608.209,165.839C607.618,164.397 606.569,163.675 605.06,163.675L600.341,163.675L600.338,163.675L595.619,163.675C594.109,163.675 593.061,164.397 592.47,165.839L576.088,204.601C575.891,205.061 564.679,231.842 564.679,232.301C564.679,233.284 565.023,234.105 565.712,234.761C566.4,235.417 567.14,235.745 567.927,235.745L576.191,235.745C576.783,235.745 577.388,235.548 578.013,235.154C578.636,234.761 579.078,234.27 579.341,233.678L598.758,187.425C599.346,186.023 601.333,186.023 601.921,187.425L621.337,233.678C621.601,234.27 622.043,234.761 622.666,235.154C623.291,235.548 623.896,235.745 624.486,235.745L632.752,235.745C633.539,235.745 634.278,235.417 634.967,234.761C635.655,234.105 636,233.284 636,232.301C636,231.842 624.788,205.061 624.591,204.601Z" style="fill:white;fill-rule:nonzero;"/>
        <path d="M267.142,163.536L259.664,163.536C258.808,163.536 258.039,163.864 257.35,164.519C256.661,165.175 256.316,165.963 256.316,166.881L256.316,232.418C256.316,233.336 256.644,234.14 257.302,234.828C257.957,235.517 258.743,235.862 259.664,235.862L267.142,235.862C268.06,235.862 268.847,235.517 269.503,234.828C270.158,234.14 270.487,233.336 270.487,232.418L270.487,166.881C270.487,165.963 270.158,165.175 269.503,164.519C268.847,163.864 268.06,163.536 267.142,163.536Z" style="fill:white;fill-rule:nonzero;"/>
        <path d="M446.145,179.132C442.438,172.999 437.338,168.652 430.844,166.093C426.448,164.388 422.248,163.536 418.248,163.536L390.793,163.536C389.875,163.536 389.071,163.879 388.382,164.568C387.694,165.257 387.349,166.062 387.349,166.979L387.349,174.064C387.349,174.983 387.694,175.771 388.382,176.426C389.071,177.083 389.875,177.41 390.793,177.41L417.951,177.41C421.692,177.41 425.053,178.379 428.039,180.313C431.022,182.249 433.336,184.905 434.977,188.283C436.614,191.663 437.438,195.451 437.438,199.649C437.438,203.848 436.614,207.637 434.977,211.015C433.336,214.394 431.022,217.052 428.039,218.984C425.053,220.921 421.692,221.888 417.951,221.888L401.515,221.888L401.515,200.163C401.515,199.245 401.187,198.458 400.532,197.801C399.875,197.146 399.088,196.817 398.17,196.817L390.692,196.817C389.837,196.817 389.067,197.146 388.378,197.801C387.69,198.458 387.345,199.245 387.345,200.163L387.345,229.9C387.346,229.9 387.348,229.899 387.349,229.899L387.349,232.319C387.349,233.238 387.694,234.041 388.382,234.729C389.071,235.418 389.875,235.763 390.793,235.763L418.248,235.763C422.367,235.763 426.238,235.046 429.87,233.641L451.52,203.474C451.632,202.218 451.704,200.948 451.704,199.649C451.704,192.106 449.85,185.267 446.145,179.132Z" style="fill:white;fill-rule:nonzero;"/>
        <path d="M347.566,207.915C352.027,206.407 355.454,203.865 357.85,200.289C360.243,196.714 361.441,192.434 361.441,187.447C361.441,182.659 360.374,178.46 358.243,174.851C356.111,171.245 353.125,168.456 349.288,166.487C345.45,164.519 341.038,163.536 336.052,163.536L304.662,163.536C303.744,163.536 302.939,163.864 302.251,164.519C301.563,165.175 301.217,165.963 301.217,166.881L301.217,173.966C301.217,174.885 301.563,175.673 302.251,176.328C302.939,176.984 303.744,177.312 304.662,177.312L335.168,177.312C338.774,177.312 341.678,178.197 343.875,179.969C346.073,181.739 347.172,184.234 347.172,187.447C347.172,193.681 343.04,196.796 334.774,196.796L304.662,196.796C303.744,196.796 302.939,197.14 302.251,197.829C301.563,198.518 301.217,199.322 301.217,200.24L301.217,232.418C301.217,233.336 301.563,234.123 302.251,234.778C302.939,235.435 303.744,235.763 304.662,235.763L312.042,235.763C312.96,235.763 313.764,235.435 314.453,234.778C315.143,234.123 315.486,233.336 315.486,232.418L315.486,212.385C315.486,211.438 316.254,210.669 317.202,210.669L332.905,210.669L347.763,234.188C348.418,235.239 349.37,235.763 350.616,235.763L359.473,235.763C360.391,235.763 361.195,235.418 361.883,234.729C362.573,234.041 362.917,233.271 362.917,232.418C362.917,231.763 362.721,231.138 362.327,230.547L347.566,207.915Z" style="fill:white;fill-rule:nonzero;"/>
        <path d="M223.196,204.461L206.815,165.7C206.224,164.257 205.175,163.536 203.666,163.536L198.947,163.536L198.942,163.536L194.224,163.536C192.715,163.536 191.667,164.257 191.075,165.7L174.694,204.461C174.496,204.921 163.284,231.702 163.284,232.161C163.284,233.145 163.629,233.966 164.318,234.621C165.006,235.277 165.745,235.605 166.532,235.605L174.797,235.605C175.389,235.605 175.994,235.408 176.619,235.015C177.242,234.621 177.684,234.13 177.947,233.538L197.364,187.286C197.952,185.884 199.938,185.884 200.526,187.286L219.943,233.538C220.206,234.13 220.648,234.621 221.271,235.015C221.896,235.408 222.501,235.605 223.092,235.605L231.357,235.605C232.145,235.605 232.884,235.277 233.572,234.621C234.261,233.966 234.605,233.145 234.605,232.161C234.605,231.702 223.394,204.921 223.196,204.461Z" style="fill:white;fill-rule:nonzero;"/>
        <path d="M537.979,177.424L530.6,177.424C529.614,177.424 528.793,177.769 528.139,178.457C527.481,179.146 527.155,179.95 527.155,180.868L527.155,206.358C527.155,208.017 525.038,208.71 524.057,207.373L493.009,165.052C492.417,164.134 491.499,163.675 490.253,163.675L481.691,163.675C480.773,163.675 479.969,164.003 479.28,164.658C478.592,165.315 478.247,166.135 478.247,167.119C478.247,167.972 478.477,168.661 478.938,169.186L526.563,234.524C527.286,235.443 528.237,235.902 529.418,235.902L537.979,235.902C538.896,235.902 539.7,235.558 540.391,234.869C541.079,234.181 541.422,233.378 541.422,232.459L541.422,180.868C541.422,179.95 541.079,179.146 540.391,178.457C539.7,177.769 538.896,177.424 537.979,177.424Z" style="fill:white;fill-rule:nonzero;"/>
        <path d="M484.621,215.48C483.933,214.792 483.129,214.447 482.211,214.447L474.83,214.447C473.912,214.447 473.107,214.792 472.419,215.48C471.73,216.169 471.386,216.972 471.386,217.892L471.386,219.594L471.374,219.594L471.374,230.757L471.386,230.757L471.386,232.459C471.386,233.378 471.73,234.181 472.419,234.869C473.107,235.558 473.912,235.902 474.83,235.902L482.211,235.902C483.129,235.902 483.933,235.558 484.621,234.869C485.312,234.181 485.654,233.378 485.654,232.459L485.654,230.757L485.654,219.594L485.654,217.892C485.654,216.972 485.312,216.169 484.621,215.48Z" style="fill:white;fill-rule:nonzero;"/>
    </g>
    <defs>
        <linearGradient id="_Linear1" x1="0" y1="0" x2="1" y2="0" gradientUnits="userSpaceOnUse" gradientTransform="matrix(600,-600,600,600,100,500)"><stop offset="0" style="stop-color:rgb(239,68,56);stop-opacity:1"/><stop offset="1" style="stop-color:rgb(254,193,16);stop-opacity:1"/></linearGradient>
    </defs>
</svg>
